<svg xmlns="http://www.w3.org/2000/svg" xmlns:xlink="http://www.w3.org/1999/xlink" viewBox="0 0 300.53 309.49"><defs><style>.cls-1{fill:none;}.cls-2{fill:#2bb673;}.cls-3{clip-path:url(#clip-path);}.cls-4{fill:#fac685;}.cls-5{fill:#cc8f45;opacity:0.1;}.cls-6{fill:#e8af66;}.cls-13,.cls-17,.cls-21,.cls-34,.cls-50,.cls-6{opacity:0.5;}.cls-10,.cls-7{fill:#d6a66b;}.cls-20,.cls-30,.cls-35,.cls-39,.cls-51,.cls-53,.cls-56,.cls-7{opacity:0.4;}.cls-8{fill:#facb91;}.cls-17,.cls-20,.cls-22,.cls-23,.cls-9{fill:#ad6815;}.cls-9{opacity:0.15;}.cls-10,.cls-32,.cls-37{opacity:0.2;}.cls-11,.cls-24{fill:#593404;}.cls-11,.cls-23,.cls-27{opacity:0.7;}.cls-12{fill:#e8d2a2;}.cls-13{fill:#c98e46;}.cls-14,.cls-47{fill:#400a0f;}.cls-14,.cls-15,.cls-22,.cls-33,.cls-48{opacity:0.3;}.cls-15,.cls-44{fill:#9e1925;}.cls-16{fill:#262526;}.cls-18{fill:#0f0e0e;}.cls-19{fill:#231f20;}.cls-21{fill:#c48943;}.cls-25{fill:#7a480d;}.cls-26,.cls-57,.cls-58{fill:#fff;}.cls-27,.cls-31{fill:#8a5822;}.cls-28{fill:#ff8962;}.cls-29,.cls-30{fill:#bf5a3c;}.cls-31,.cls-57{opacity:0.8;}.cls-32,.cls-42{fill:#fff200;}.cls-33,.cls-34{fill:#ffd1c2;}.cls-35,.cls-37{fill:#fad6aa;}.cls-36{fill:#fae3c6;}.cls-36,.cls-58{opacity:0.6;}.cls-38{fill:#e6e7e8;}.cls-40{fill:#bcbec0;}.cls-41{fill:#be1e2d;}.cls-43{fill:#f15a29;}.cls-45{fill:#691e26;}.cls-46{fill:#0c0e47;}.cls-48{fill:#662d91;}.cls-49{fill:#fbb040;}.cls-50{fill:#00aeef;}.cls-51{fill:#00a651;}.cls-52{fill:#f1ae29;}.cls-53{fill:#bcf129;}.cls-54{fill:#211d1f;}.cls-55,.cls-56{fill:#58595b;}</style><clipPath id="clip-path"><circle class="cls-1" cx="150.26" cy="150.26" r="150.26"/></clipPath></defs><title>Asset 5</title><g id="Layer_2" data-name="Layer 2"><g id="Layer_1-2" data-name="Layer 1"><circle class="cls-2" cx="150.26" cy="150.26" r="150.26"/><g class="cls-3"><path class="cls-4" d="M231.35,111.88V116c0,.1-.06.61-.14,1.29,0,.18-.05.38-.08.58-.14,1.1-.32,2.42-.42,3.23,0,.09,0,.18,0,.26s0,0,0,.06a2.33,2.33,0,0,1-.34.87c-.1.15-.19.3-.28.45s-.13.21-.18.31-.29.47-.42.71l-.18.33c-.17.32-.33.63-.48,1s-.34.7-.48,1-.25.58-.36.87-.32.83-.45,1.23-.22.67-.31,1-.16.53-.22.79-.21.8-.29,1.2-.14.64-.19,1a5.16,5.16,0,0,0-.09.52c0,.18-.06.36-.08.53a28.37,28.37,0,0,0-.15,6.91,17.14,17.14,0,0,0,.32,2.15,37.47,37.47,0,0,1,1.73,10.82c0,.32,0,.64,0,1s0,.48,0,.72,0,.52-.06.78,0,.57-.08.85a24.42,24.42,0,0,1-.51,2.89c0,.21-.1.42-.16.62a22.07,22.07,0,0,1-1,3.07q-.33.78-.69,1.5c-.37.71-.75,1.37-1.13,2l-.15.23c-.31.48-.63.92-.94,1.32l-.07.09c-.13.16-.25.32-.38.47s-.3.37-.46.55l-.56.63-.53.54-.45.43-.23.22h0l-.25.23a1.8,1.8,0,0,0-.2.18l-.17.15a.68.68,0,0,0-.12.12.38.38,0,0,0-.09.09l0,.06c0,.13-.39.78-.91,1.75l-.24.44c-.13.24-.27.49-.41.76s-.3.54-.46.83c-.82,1.46-1.8,3.17-2.82,4.82-.19.3-.37.6-.56.89-.32.5-.64,1-1,1.47l-.3.43c-.47.7-.95,1.34-1.39,1.89q-.13.18-.27.33a7.21,7.21,0,0,1-1.43,1.39c-1.08.7-2.83,2.09-4.61,3.54-3,2.44-6,5.08-6,5.08a15.32,15.32,0,0,1-4.76,3.91,18.8,18.8,0,0,1-2.66,1.22,16.93,16.93,0,0,1-2.58.75c-2.26.31-4.32.5-6.2.58-9.33.45-14-1.5-14.93-1.7a70.76,70.76,0,0,1-6.29-3.39c-4-2.28-8.34-4.87-8.34-4.87l-1.23-1-4.26-3.62-7.13-6.07-.07,0L137.38,178h0l-7.89-6.71c-5.9-5.08-9-14.47-10.45-20.33v0c-.76-3.06-1-5.15-1-5.15-1.49,1.58-4.16,1.44-6.49.9a18.39,18.39,0,0,1-8.64-4.15c-6.59-5.8-8.35-16.61-4.63-27.37,10.44-18.07,18.5-26.84,24.13-31.5A104.69,104.69,0,0,0,133.8,72.81s0,0,0,0a103.09,103.09,0,0,0,8.63-10.88c22.36-17.52,49.81-20,67-7.5,9.88,7.18,14.11,17.65,16,24.05l3.51,6.67a124.74,124.74,0,0,1,1.66,20.49c0,.07,0,.32,0,.67a24.19,24.19,0,0,0,.51,4.55c0,.2.08.39.12.57S231.31,111.72,231.35,111.88Z"/><path class="cls-5" d="M187.69,120s-2,3.86-5.71,4.23-12.88,0-12.88,0-6-3.69-9.12-4.71-3.72,4.71-3.72,4.71l-12.07,2.85s-5.11,2.92-8.65,10.38c-3.72,7.85-5.7,20.72,1.83,40.5l-7.89-6.71c-5.9-5.08-9-14.47-10.45-20.33v0c-.76-3.06-1-5.15-1-5.15-1.49,1.58-4.16,1.44-6.49.9a18.39,18.39,0,0,1-8.64-4.15c-6.59-5.8-8.35-16.61-4.63-27.37,10.44-18.07,18.5-26.84,24.13-31.5A104.69,104.69,0,0,0,133.8,72.81s0,0,0,0c15.6-13.92,29.8-24.74,32.67-21,6.91,9,12.58,14.67,14.08,22.33s-2,12.87-5.19,13.52S158,92.13,157,92.42c1.28-.17,22-2.83,25.09,3.16C185.27,101.76,192.47,108.6,187.69,120Z"/><path class="cls-6" d="M206.93,152.43s-5.33.16-5.5.66-.83,2.84-.83,2.84-7.93-.84-5.88-2.5,1.55-2.17,1.55-2.17a16.82,16.82,0,0,0-7.34-2.91c-4.33-.59-6.66-9.26-6.66-9.26s-.84-7,1.83-9.66-.82-4.5-.82-4.5-15.68-1-16.51-.69-4.17-1.15-4.17-1.15,4,.34,5.33-.5-8.33-1.33-9.66-1-4,5.84-7.84,5.5-7-1-7.5,1.67,1.42,11.67,1.42,11.67,14.75,1.33,18.25.66,14.39-3.87,14.82-4c-.09.25-1.72,4.17-4,4.33s-27.16,6.92-27.16,6.92-5,6.91,4.83,14.41c6,4.58,3.93,18.19,1.39,28.07l-4.26-3.62-18.75-16c-5.9-5.08-9-14.47-10.45-20.33v0c-.76-3.06-1-5.15-1-5.15-1.49,1.58-4.16,1.44-6.49.9a18.39,18.39,0,0,1-8.64-4.15c-6.59-5.8-8.35-16.61-4.63-27.37,10.44-18.07,18.5-26.84,24.13-31.5a104.56,104.56,0,0,0,11.5-10.88,103.09,103.09,0,0,0,8.63-10.88c22.36-17.52,49.81-20,67-7.5,9.88,7.18,14.11,17.65,16,24.05l3.51,6.67a124.74,124.74,0,0,1,1.66,20.49c0,.07,0,.32,0,.67a24.56,24.56,0,0,0,.63,5.12,15.3,15.3,0,0,0-6.13-6.62c-3.87-2.1-6.17-.72-10.75-2.5a21,21,0,0,1-9.25-7.5c-3.9-5.65-3-10.83-6.67-12.24a5.68,5.68,0,0,0-3.71,0l1.55,2.07-3.5,1.17,1.95,4s1.21,6.67,1.55,7.33,4.83,9.5,4.33,11.67,3,22.5,3,22.5l-5,2.83s-1.83,4.17-1,4.17,4.5,1.83,5.67,2.17,5,1.33,5.33,2,2.5-1.67,2.5-2.67,2.17,4.33,2.08,6S215.27,150.93,206.93,152.43Z"/><path class="cls-4" d="M212.84,147.75h0c-.29,2.11-1.32,4-4.07,3.83,0,0-3.82,0-2.84-.64s3.87-2.07,3.43-2.13-.57-.75-2.2.06-6.18,2.94-9.56.63c0,0-1-1.21-.94-1.76s.88-.68,1.56-.37,1.63.76,1.07-.37-2.38-2.5-5.44-2.81a7.72,7.72,0,0,0-5.31,1.56s-3.5-.5-4.38-2.75a6.33,6.33,0,0,1-.58-3.72c.58-.48,1.88-1.72,3.18-3l.7-.66h0a14.3,14.3,0,0,1,1.44-1c.05,0,.13-.18.24-.46l.1-.25v0c1.38-3.51,6.19-18.72,10.42-23.4,2.63-2.91,5-1.76,6.25,8.75,0,0,2.34,11.67,4,15.83a69.64,69.64,0,0,1,2.55,7.52,8.89,8.89,0,0,1,.25,1.14h0A14,14,0,0,1,212.84,147.75Z"/><path class="cls-7" d="M169.85,144.26a16.71,16.71,0,0,0-8,2.75c-2.24,1.54-3.5,3.34-5.75,3.25-1.13,0-.95-.49-3.5-1.13,0,0-.93-.22-4.67-.78.93-1.41,2.45-3.2,4.67-3.59,1.53-.27,1.89.4,4,.5,3.39.17,4.46-1.48,7.93-1.76A12.9,12.9,0,0,1,169.85,144.26Z"/><path class="cls-8" d="M187.46,135.65c-1.51,1.45-3.2,3.07-3.88,3.64a2.09,2.09,0,0,1,.58-1C184.78,137.75,186.27,136.53,187.46,135.65Z"/><path class="cls-9" d="M170.91,124.24s5.35-1.81,4.5-2.75a2.35,2.35,0,0,0-1.7-.91s5.65-.77,7.43-1.88,4,1.49,4.38,2.77-2,2.26-3.54,2.77S170.91,124.24,170.91,124.24Z"/><path class="cls-10" d="M194.72,199.29a18.94,18.94,0,0,1-5.24,2c-2.26.31-4.32.5-6.2.58-9.33.45-14-1.5-14.93-1.7a70.76,70.76,0,0,1-6.29-3.39c-4-2.28-8.34-4.87-8.34-4.87l-5.49-4.67-18.75-16c-5.9-5.08-9-14.47-10.45-20.33v0c-.91-8-1.93-13.65-.6-16.15s2.34-41.17,2.34-41.17,5.71,6.41,6,9-.84,5.5,0,8.67a131.24,131.24,0,0,0,5.16,15.67c1.84,4,1.17,16,1.17,17.33s5,16.83,7.67,19.5,11.33-1.17,13.33,0,2.83,4.33,3.33,13,8,13.5,11.67,15,18,2.5,20.33,4.67A17.54,17.54,0,0,0,194.72,199.29Z"/><path class="cls-4" d="M183.28,201.84s-.67.54-1.32,1.13a6.38,6.38,0,0,0-1.19,1.29l0,.1a19.33,19.33,0,0,0-.32,2.69c-.18,2.4-.31,5.71-.31,7.38,0,2.66-2.42,15.25-2.42,15.25s-.07.25-.14.66a6.32,6.32,0,0,0,.81,4.42,4.08,4.08,0,0,0,.25.33s-.5,5.92-4.12,7.79c0,0,1,9.5-1.38,13l-7.88,4.26s-5-7.13-7.5-8.63a28,28,0,0,0-3.23-4.5,30.87,30.87,0,0,0-3.34-3.33,27.31,27.31,0,0,0-3.05-2.3l-8-9.24s-4.75-5.88-7.12-6.5l-4-7.88s-5.13-6.88-7.76-7.12c0,0-1-.34-2.36-.94a28.45,28.45,0,0,1-3.35-1.74,11.08,11.08,0,0,1-2.79-2.32s-4.62-4.13-7.5-4.5l.74-2.35,3.26-10.41A72.57,72.57,0,0,1,112.48,174s1.12-8.25-.13-11.63c0,0-.58-3-1-6.52-.34-3.21-.51-6.88.08-9.2,2.33.54,5,.68,6.51-.9,0,0,2.5,17.75,11.5,25.5l7.33,6.24,3.59,3.05,7.83,6.66,5.49,4.67s4.37,2.59,8.34,4.87a70.76,70.76,0,0,0,6.29,3.39,36.22,36.22,0,0,0,9.6,1.7q1.59.09,3.48.06Z"/><path class="cls-11" d="M115.51,120.53c-3.08,3.87-3.21,6.17-2.7,7.56.64,1.77,2.67,3.07,2.29,4.92-.06.29-.24,1.2-.79,1.31a1,1,0,0,1-.79-.31s-1.48-.17-4-2.83c0,0-3-2.35-5.59-.51s-4.13-2.24-4.13-2.24l3.5-8.34c.25-.36,6.06-8.38,9.83-7.16a4,4,0,0,1,1.29.76C116.79,115.79,115.65,120,115.51,120.53Z"/><path class="cls-12" d="M22.44,240a10,10,0,0,0,1.16-2.61,6.72,6.72,0,0,0,3.75-.31,22.67,22.67,0,0,0,3.58-1.53,10.1,10.1,0,0,1,2.44-1.7A16.56,16.56,0,0,1,38,232.35l.85-.13a12.7,12.7,0,0,1,1.39-.13,14.86,14.86,0,0,1,2.44-2,38.86,38.86,0,0,1,4.61-2.65s1-23.84,1-25.52a3.08,3.08,0,0,0-.17-1c-.34-1.06-1.06-1.84-.67-3.65.5-2.33,2.84-11,2.84-11l4.5,1.17c7.16,9.83,24,8.16,24,8.16A127.6,127.6,0,0,1,93,198.26l.55.14c2.21.56,4.34,1.15,6.36,1.78,1.84,1.81,4.2,2,5.29,1a3,3,0,0,0,.74-2.35l2.2-7v0h0l1-3.37s0-.4.14-1.14A75.68,75.68,0,0,1,112.48,174a48.06,48.06,0,0,0,.34-9.27,9.29,9.29,0,0,0-.47-2.36s-1.74-8.86-1.15-14.17v-.08a11.76,11.76,0,0,1,.26-1.47,23.37,23.37,0,0,1-4.37-1.52L105.48,143A13.81,13.81,0,0,1,103,132.32c1.68-1.25.81-4.44.81-4.44,2.5-.62,5.5-6.12,5.5-6.12a15,15,0,0,1,4.37-8.38c.38-1.62,7.38-10.62,7.38-10.62l7.5-12.62,11.17-16.81L140,73l10.5-6.25c.62-.38,3.87-.12,4.37-.75s2.75-1.13,4.5-1.63,5.75-6.12,5.75-6.12c18.07-9.39,29.06-9.79,35.16-8.4,4.63,1.06,6.46,3.15,6.46,3.15s3.63,4.13,6.5,5.13S223,69,226.72,77.53c-.22-8.31-13.54-22.35-13.54-22.35l-3.83-4.25s-7.83-5.67-8.58-6.09L199.11,44c-3.72-1.84-12.26-6-12.26-6s-9.25-2.58-10.92-3.42c-.89-.44-4.67-.51-8-.47l-1.27,0h0c-2.29,0-4.08.12-4.08.12l-11.25,1.17L141.1,38.84,134,42.43c-.48.74-2.91,2.57-5.12,4.15l-1,.67c-1.62,1.14-2.93,2-2.93,2-7.59,3.17-12.75,13.41-12.75,13.41l-.67.72-.34.37-4.16,4.49-7,13.67c-3.1,4.8-6.24,13.72-7.3,16.86-.24.72-.37,1.14-.37,1.14-2.25,1.25-2.83,6.25-3.66,10.75a30.3,30.3,0,0,0-.34,5.75c0,3.69.42,7.16.42,7.16-.38,3.07.85,7.45,2.17,11s2.66,6.3,2.66,6.3c.34,2,3.59,7,3.59,7,1.23,6.13,5.75,5.8,7.37,5.47h0a5,5,0,0,0,.57-.14s-.21.24-.58.63l-.93,1a36.86,36.86,0,0,1-4.11,3.72c-2.5,1.84-4.33,6.84-4.33,6.84l-.5-4.67c-8.5-6.17-21-1.33-21-1.33-8.5-2-16.5,3.83-16.5,3.83-1.84,0-5.34,3.17-5.34,3.17S40.6,180.76,40.6,181.59s-2.5,5.34-4.17,7c-.93.93-3.94,6.8-7,13-2.43,4.89-4.87,10-6.34,13-2.43,5-4.07,13.18-5.29,17.62v0a8.32,8.32,0,0,1-1.17,3A38.28,38.28,0,0,1,22.44,240Z"/><path class="cls-13" d="M188.43,118c.76-8.27-2.58-16.16-8.73-19.92-8.72-5.34-22.52-2-29.44,9.54a34.37,34.37,0,0,1,3.5,2.23c3.49,2.56,4,5.44,6.21,6,3,.66,10.13,7.36,18.79,3.76S186.1,122,188.43,118Z"/><path class="cls-14" d="M109.36,187.24c-.1.74-.14,1.14-.14,1.14l-1,3.37h0v0l-2.2,7a3,3,0,0,1-.74,2.35c-1.09,1-3.45.85-5.29-1-2-.63-4.15-1.22-6.36-1.78-3.18-2.13-5.82-4.06-5.72-4.52.25-1.12,2.14-4,3.67-5.77s7.7-8.1,7.7-8.1c.88-3,9.38-9.13,9.38-9.13Z"/><path class="cls-15" d="M115.35,83.4c-.58,1-1.63,8.69-3.47,10.19s-7.43,3.84-8.44,5.5A28.2,28.2,0,0,0,101,104.7c-.71,2.06-1.78,4.73-2.63,6.54s-2.18,2.07-2,3.05-3,8.8-2.69,9.27l-5.18-7.13a30.3,30.3,0,0,1,.34-5.75c.83-4.5,1.41-9.5,3.66-10.75,0,0,.13-.42.37-1.14,1.06-3.14,4.2-12.06,7.3-16.86l7-13.67,4.16-4.49.34-.37C112.83,68.93,115.81,82.59,115.35,83.4Z"/><path class="cls-16" d="M26.94,246.31a71.87,71.87,0,0,0,6.26,11.14,115.38,115.38,0,0,0,13.68,13.21c14.84,10.79,31.34,19.5,48.12,26.95a175.09,175.09,0,0,0,36.8,10c15.23,1.74,31.13,2.57,46.38,1.11,3.57-.63,7.11-1.4,10.63-2.24,21.17-9.79,43.41-18.82,62.48-32.31C262.05,265,271,254,279.69,242.85a16.34,16.34,0,0,1-4.42-6.09c-1.67-4.33-8.17-7.5-8.17-7.5,0,.46-1.4.24-3-.13a47.65,47.65,0,0,0-4.79-1c-1.34,0-13.34-8.16-13.34-8.16a33.45,33.45,0,0,0-12.05-7.32,51.4,51.4,0,0,0-15.45-3c-1.83-10.5-19-14.21-19-14.21-3.76,4.76-10,5.88-10,5.88-2.26.31-4.32.5-6.2.58a15.68,15.68,0,0,0-2.51,2.42c-.34.67-.67,7.5-.67,10.17a55,55,0,0,1-.79,6.19c-.71,4.29-1.63,9.06-1.63,9.06-.06.62-.14,1.25-.23,1.89q-.09.69-.21,1.35c-.22,1.36-.5,2.64-.81,3.84l-2,6.12s1,9.5-1.38,13l-.61.33-7.27,3.93,0,0c-.34-.48-5.07-7.15-7.48-8.6a31.21,31.21,0,0,0-9.62-10.13l-8-9.24s-4.75-5.88-7.12-6.5l-4-7.88s-5.13-6.88-7.76-7.12c0,0-6.24-2.13-8.5-5,0,0-4.62-4.13-7.5-4.5,0,0-1.89-1-4.27-2.16-3.21-1.56-7.32-3.39-8.85-3.39H78.77s-16.84,1.67-24-8.16l-4.5-1.17s-2.34,8.67-2.84,11c-.39,1.81.33,2.59.67,3.65a3.08,3.08,0,0,1,.17,1c0,1.68-1,25.52-1,25.52l-.33.16c-1.13.57-4.9,2.53-6.72,4.5,0,0-5.84.17-9.34,3.5,0,0-4.83,2.67-7.33,1.84A10,10,0,0,1,22.44,240,22.33,22.33,0,0,1,26.94,246.31Z"/><path class="cls-17" d="M200.6,175s-7.5-.37-10.17-3.2H180.6a3,3,0,0,0,1.16,1.6c.84.47.5,2.36-.5,2.92s6.34-1.13,7.84-1.13S198.26,179.18,200.6,175Z"/><path class="cls-18" d="M181.16,245.82s-2.06,8.35-8.06,10.06c2.38-3.5,1.38-13,1.38-13l2-6.12c.31-1.2.59-2.48.81-3.84a7.49,7.49,0,0,1,2,2Z"/><path class="cls-19" d="M251.29,274.19C262.05,265,271,254,279.69,242.85a16.34,16.34,0,0,1-4.42-6.09c-1.67-4.33-8.17-7.5-8.17-7.5,0,.46-1.4.24-3-.13a47.65,47.65,0,0,0-4.79-1c-1.34,0-13.34-8.16-13.34-8.16a33.45,33.45,0,0,0-12.05-7.32l-11.11,18.48,1.1,59.14A209.09,209.09,0,0,0,251.29,274.19Z"/><path class="cls-16" d="M232.9,285.53a59.62,59.62,0,0,0-.05-8c-.38-2.5,0-7.25,0-8.38s1.75-1.87,1.75-1.87l1-.75-.75-3.92s8.37-20.46,8-20.71a69.16,69.16,0,0,1-5-7.12c-.38-.88-2.63-4.42-2.63-4.42s-3.46-4.25-7.55-8.25a20.26,20.26,0,0,0-9.3-5s-7.61-1.33-8.69-3.66-8.26,0-8.26,0-14,2.08-13.74,3.58l23.7,79.2C218.66,292.84,225.88,289.35,232.9,285.53Z"/><path class="cls-16" d="M109.43,282.43c1.65.33,22,11.66,24,12.33s19.33,7,21.33,10a13.93,13.93,0,0,0,5.66,4.72,174.35,174.35,0,0,0,17.76-.74c3.57-.63,7.11-1.4,10.63-2.24l5.86-2.68c-34.43-36.16-81.91-77.73-81.91-77.73s-14.33,33.67-12.66,40.67S107.78,282.09,109.43,282.43Z"/><path class="cls-17" d="M162.6,145.76s-6.34,1.48-7.67,2-7,.6-7,.6S155.6,145.43,162.6,145.76Z"/><path class="cls-20" d="M194.72,106.09s1.54,7.17,1.54,8.84-1.83,5.83-5,5.66c0,0,1-9.16,0-11.33s-2.83-5.67-2.83-5.67l-4.33-4.5S191.84,102.26,194.72,106.09Z"/><path class="cls-20" d="M225.6,112.93a37.61,37.61,0,0,0-11,2.5c-4.1,1.62-5.18,2.92-5.5,3.33-2.72,3.48-1.51,8.32-1.17,9.54-.67-3-1.33-6-2-9,0,0,4.17-5.5,4.33-6.33S223.43,111.26,225.6,112.93Z"/><path class="cls-21" d="M183.28,201.84a15.68,15.68,0,0,0-2.51,2.42l0,.1a48.86,48.86,0,0,0-2.13,8.4S162.1,229,159.35,230a9.84,9.84,0,0,1-5.75,0s-11.5-16.25-14-18.25-11.5-17.5-11.5-17.5l-9.25-25.32s-4.35-9.24-7.46-13.08c-.34-3.21-.51-6.88.08-9.2,2.33.54,5,.68,6.51-.9,0,0,2.5,17.75,11.5,25.5l18.75,16,5.49,4.67s4.37,2.59,8.34,4.87a70.76,70.76,0,0,0,6.29,3.39C169.29,200.34,174,202.29,183.28,201.84Z"/><path class="cls-21" d="M192.06,200.51a16.93,16.93,0,0,1-2.58.75c-2.26.31-4.32.5-6.2.58-9.33.45-14-1.5-14.93-1.7a70.76,70.76,0,0,1-6.29-3.39c-4-2.28-8.34-4.87-8.34-4.87l-1.23-1-4.26-3.62-7.13-6.07c1,.57,8.33,2.79,8.33,2.79l7.84,4.18a26.67,26.67,0,0,0,3.33,2.72c1.83,1.24,16,4.1,16,4.1C190.77,194.93,192.06,200.51,192.06,200.51Z"/><path class="cls-19" d="M228.94,85.1l-3.51-6.67s-8.5-15.17-16-18-29.33-4.17-30.33-3.84a11.86,11.86,0,0,0-2.5,1.5l5.5,1-6.5,1.17,3.67,1-7.67.33s-7.5.84-7.67,1.5-5.83,5.84-13,5.84-11.66,9.5-11.66,9.5l6.83-4.34-5,4.34,5.14-2.82c-.52.38-9,6.53-9.64,8-2,4.58-5.45,7.55-7.5,11.67a239,239,0,0,1-12.69,22.28q0-.36,0-.75a8.24,8.24,0,0,0-2.1-4.54c1.71-2.92,6.82-9.49,6.82-9.49l7.5-12.62L140,73l10.5-6.25c.62-.38,3.87-.12,4.37-.75s2.75-1.13,4.5-1.63,5.75-6.12,5.75-6.12C196.85,41.76,206.72,53,206.72,53s3.63,4.13,6.5,5.13S223,69,226.72,77.53h0c.09.2.18.4.26.6A36.59,36.59,0,0,1,228.94,85.1Z"/><path class="cls-8" d="M188.91,134.64a14.3,14.3,0,0,0-1.44,1l1.78-1.71A2.4,2.4,0,0,1,188.91,134.64Z"/><path class="cls-22" d="M211.35,151a43.22,43.22,0,0,1-4.25,1.8c-.56.06-.69.56-1.56.56a3.8,3.8,0,0,1-1.87-.76,5.38,5.38,0,0,0-1.67.22s-.94.37-.86,1.21-.35,1.09-1.23,1.09a18,18,0,0,1-4.31-1c-.06-.19,1.38-1.63,1.44-1.94s-.78-2.25-1.88-2.25-7.91-2.26-7.91-2.26c-.43-.22-3.74-2-4.22-5.43a6.28,6.28,0,0,1,.25-2.75,1.3,1.3,0,0,0,.3-.22,6.33,6.33,0,0,0,.58,3.72c.88,2.25,4.38,2.75,4.38,2.75a7.72,7.72,0,0,1,5.31-1.56c3.06.31,4.87,1.68,5.44,2.81,0,.09.27.49.12.67s-.61-.09-1.25.08c-.15,0-.67.18-.81.56-.08.19,0,.53.25,1.19h0c2.52,1.55,4.22,1.55,5.31,1.25.44-.12,1.71-.71,4.25-1.88a3.75,3.75,0,0,1,2.37-.56,2.46,2.46,0,0,1,1.88,1.44A2.07,2.07,0,0,1,211.35,151Z"/><path class="cls-23" d="M199.41,147.68s-.53-2.67-4.69-3.36a12.74,12.74,0,0,0-3.21,0c-.88.26-1.47.5-1.47.5a30.57,30.57,0,0,1,3.26.27C193.85,145.3,199.06,146.85,199.41,147.68Z"/><path class="cls-23" d="M209.68,148.93l-2.63,1.87a20.93,20.93,0,0,1-2.41.25,9.07,9.07,0,0,1-1.49-.37S209.39,147.72,209.68,148.93Z"/><path class="cls-24" d="M187.46,118.13s-8-15.63-26.86-9c0,0,15,8.38,20.87,7.38C181.47,116.51,185.19,117.38,187.46,118.13Z"/><path class="cls-25" d="M187.46,114.63a13.36,13.36,0,0,0-4.3-6.59,14.66,14.66,0,0,0-7.25-2.92,32.88,32.88,0,0,0-4-.36c-1.35-.06-2.68-.08-4,0A37.14,37.14,0,0,0,160,106a28.51,28.51,0,0,1,7.9-1.85,34.77,34.77,0,0,1,4.08-.08,32.78,32.78,0,0,1,4.07.3,14.73,14.73,0,0,1,7.51,3.22A12.28,12.28,0,0,1,187.46,114.63Z"/><path class="cls-26" d="M183.16,115.77c-2.27.72-5.48,0-8.27-.86-2.06-.65-3.88-1.39-4.91-1.71a7.62,7.62,0,0,1-1.72-.81,22,22,0,0,1-3.72-2.88c.58-.58,2.58-.88,4.54-1a32.11,32.11,0,0,1,4.21,0,14.31,14.31,0,0,1,3.3,1.35c1.72.85,3.57,1.86,4.39,2.27C182.48,112.82,183.16,115.77,183.16,115.77Z"/><path class="cls-19" d="M176.85,111.26a4.36,4.36,0,0,1-2,3.65c-2.06-.65-3.88-1.39-4.91-1.71a7.62,7.62,0,0,1-1.72-.81,3.86,3.86,0,0,1-.16-1.13,4.38,4.38,0,0,1,1-2.76,13.74,13.74,0,0,1,2.38-.22,6.82,6.82,0,0,1,2.11.2,10.46,10.46,0,0,1,1.34.51c.71.31,1.28.6,1.68.81A4.44,4.44,0,0,1,176.85,111.26Z"/><path class="cls-24" d="M225.1,130.37a16.79,16.79,0,0,1-2.67-.09c-3.57-.33-6-.38-8.33-1.6-.85-.44-1.29-.81-2.58-1.38-.35-.15-1.18-.51-2.22-1.08a4.43,4.43,0,0,1-1.23-.93,2,2,0,0,1-.66-1.24l.11-.87h0a6.87,6.87,0,0,1,.83-.59c3.63-2.18,8.16-.54,9.41-.08,1.67.61,4.9,1.78,6.5,5A8.44,8.44,0,0,1,225.1,130.37Z"/><path class="cls-26" d="M222.71,128.6a3.32,3.32,0,0,1-.49,1.08,16.63,16.63,0,0,1-5.87-.59l-.66-.22c-2.1-.73-2.76-1.57-5.11-2.33h0a6,6,0,0,1-1.67-.81,2.55,2.55,0,0,1-.28-.21,5.43,5.43,0,0,1-1.15-1.3h0a1.51,1.51,0,0,1,.07-1l.07,0,.08,0a7.62,7.62,0,0,1,2-.45,18.8,18.8,0,0,1,5.23.42,21.62,21.62,0,0,1,2.43.76l1.08.44c.4.18.81.37,1.24.59a23.11,23.11,0,0,1,2.67,1.63,1.05,1.05,0,0,1,.42.71A3.49,3.49,0,0,1,222.71,128.6Z"/><path class="cls-19" d="M218,125.67a3,3,0,0,1-.28,1.56,3.27,3.27,0,0,1-2.06,1.64c-2.1-.73-2.76-1.57-5.11-2.33h0a6,6,0,0,1-1.67-.81,3.55,3.55,0,0,1,0-.46,4.39,4.39,0,0,1,.85-2.59,15.13,15.13,0,0,1,3.58.06,16.19,16.19,0,0,1,3.18.78l.9.34A3.48,3.48,0,0,1,218,125.67Z"/><path class="cls-9" d="M220.76,138.59c-.46.1-1.13.14-4.37-1.46-4.4-2.17-6.62-3.3-7.54-5.38a18.41,18.41,0,0,1-.92-3.45c-.29-1.37-.45-2.52-.54-3.31,1.62.71,2.84,1.35,3.66,1.81a29.22,29.22,0,0,0,3.84,1.88l.27.1a25.57,25.57,0,0,0,7.27,1.5c.63.05,1.55.1,2.67.09a8.26,8.26,0,0,1-.09,2.76C224.58,135.24,223.09,138.1,220.76,138.59Z"/><path class="cls-27" d="M231.35,113.27V116a6,6,0,0,0-3.68-2.81,7.58,7.58,0,0,0-2.07-.27c-4.25,0-14.11.58-14.11.58s-2.36-1.68,0-4.38,6.86-3.2,6.86-3.2,5.16-.28,8.91,1.86h0a7.28,7.28,0,0,1,3.09,3.17C230.8,111.89,231.12,112.65,231.35,113.27Z"/><path class="cls-27" d="M155.43,93.59S166,85.43,174.6,88.18c0,0,11.8,2.57,14.65,5.41,0,0,5.18,3.67,5.85,5.5s0,4.84,0,4.84-2.92,2.14-3.5,2-5.5-6.4-6.84-7.32-9.14-4.09-10.73-5-6.93-2.16-9-1.66S155.43,93.59,155.43,93.59Z"/><path class="cls-25" d="M226.18,128.09a12,12,0,0,0-.3-3,8.59,8.59,0,0,0-1.06-2.75,8.45,8.45,0,0,0-4.57-3.41,10.1,10.1,0,0,0-2.88-.58,13,13,0,0,0-5.81.91,15.47,15.47,0,0,0-2.71,1.33,12.83,12.83,0,0,1,5.47-2.69,11.47,11.47,0,0,1,6.17.32,8.47,8.47,0,0,1,4.83,3.84A9.63,9.63,0,0,1,226.18,128.09Z"/><path class="cls-28" d="M208.85,171.76l-.76.28-1.07.39a2.5,2.5,0,0,0-.37.07,17.86,17.86,0,0,0-5.22,2.18c-3.41,2-12.18-2.92-12.18-2.92s-11-7.92-12.15-8.12a42.06,42.06,0,0,1-6.92-2.88,6,6,0,0,1-1.83-1.44h0a18.92,18.92,0,0,1-1.75-2.72.16.16,0,0,1,0-.06c-.2-.53.65-1.3,1.42-1.88h0a4.84,4.84,0,0,0,1.18.81,5.75,5.75,0,0,0,3.25.37c1.35-.14,3.13-.26,5.61-.31h12a3.3,3.3,0,0,1,2,.66l3.42,2.55a2.07,2.07,0,0,0,1.38.39C206.71,158.6,208.85,171.76,208.85,171.76Z"/><path class="cls-29" d="M167.72,155.14a3.81,3.81,0,0,0,1.44,2.12,6.15,6.15,0,0,0,2.44,1c.18,0,5.25.62,5.25.62l4.81.38,3.44.75,2.31,1.56,2.63,1.06,2.81.88,1.88.69,1.93.62,2.75,1,2.75,1.38,1.37.93.44-.37.81.37h.5l.82,1.32,1.59,2.73a10.88,10.88,0,0,1-4.54-3.23l-2.55-1.88-2.4-1-3.48-1.25L190,163.13l-1.94-.56-2.44-1.31-1.81-.88-2.94-.37-3.88-.38-2.37-.37-4.94-.06s-2.44-2.25-2.56-2.44S166.41,156.21,167.72,155.14Z"/><path class="cls-30" d="M208.09,172l-1.07.39a2.5,2.5,0,0,0-.37.07c-.22-.17-.47-.36-.74-.55a39.9,39.9,0,0,0-4-2.44c-.26-.15-1.49-.84-3.19-1.69-1.05-.53-4.5-2.12-4.5-2.12s-.52-.07-1.18-.21a10.64,10.64,0,0,1-2.06-.59c-1.19-.52-1.88-1.3-3-1.66a30.13,30.13,0,0,0-3.4-1.29c-1.42-.31-3-.63-4-.81s-2.38-.26-3.31-.44a16.7,16.7,0,0,0-3.31-.5c-.45,0-.47,0-1.13,0A24.8,24.8,0,0,1,170,160a4.84,4.84,0,0,1-1.69-.69h0a18.92,18.92,0,0,1-1.75-2.72.16.16,0,0,1,0-.06c-.2-.53.65-1.3,1.42-1.88a8.57,8.57,0,0,0,2.75,2.3,12.23,12.23,0,0,0,3.94,1c.82.12,2.38-.07,3.63.12,4,.61,4.36,0,5.19.25a13.75,13.75,0,0,1,3.18,1.5,11.21,11.21,0,0,0,1,.63,10.77,10.77,0,0,0,1.31.62c1.74.68,4.7-.3,7,.81,1.93.94,1.6,2.45,3.81,3.25a15.48,15.48,0,0,1,2.44.92,17.9,17.9,0,0,0,1.66.82,4.89,4.89,0,0,1,1.47.7c.86.67,1.28,1.51,2.13,3.19C207.66,171.12,207.89,171.59,208.09,172Z"/><path class="cls-31" d="M193,99.76S185.27,94,183.47,93s-7.37-2.92-8.71-2.92-4.16-.83-4.08-1.16-2.08,0-2.08,0l-5.92,1.75-1.67.5s3.75-.34,6-.67,5.92.75,6.84,1.08,8.7,3.92,9.31,4.75,6.15,3.5,6.09,3.42S190.43,101.59,193,99.76Z"/><path class="cls-32" d="M44.6,214.51c-.5,5.37-1,10-1,10s-.61,3.61-.89,5.57a14.86,14.86,0,0,0-2.44,2,12.7,12.7,0,0,0-1.39.13l0,.37a3.68,3.68,0,0,1-.9-.24,16.56,16.56,0,0,0-4.66,1.54,10.1,10.1,0,0,0-2.44,1.7,22.67,22.67,0,0,1-3.58,1.53l-.83-.11s.67-8.31.16-10.17,7.47-27.08,13.5-24.46a6.5,6.5,0,0,1,1.84.21,3.17,3.17,0,0,1,2.58,2.55C45.1,208.14,45.1,209.14,44.6,214.51Z"/><path class="cls-31" d="M228.94,112a28.19,28.19,0,0,0-3.84-1c-1.5-.21-4.25.12-5.34,0s-1.61,1-2.22,1-1.94.63-1.78,0a11.85,11.85,0,0,1,2.67-3.56,25.76,25.76,0,0,1,4.38-.91,20.82,20.82,0,0,1,3.91,1.64C226.93,109.26,228.53,111.67,228.94,112Z"/><path class="cls-10" d="M231.3,112.08v4.13c0,.1-.06.61-.14,1.29,0,.18,0,.38-.08.58-.14,1.1-.32,2.42-.42,3.23,0,.1,0,.18,0,.26s0,0,0,.06a2.33,2.33,0,0,1-.34.87c-.1.15-.19.3-.28.45s-.13.21-.18.31-.29.47-.42.71l-.18.33c-.16.32-.33.63-.48,1s-.33.7-.48,1-.25.58-.36.87-.32.83-.45,1.23-.22.67-.31,1-.16.53-.22.79-.21.8-.29,1.2-.14.64-.19,1l-.09.52c0,.18-.06.35-.08.53a28.37,28.37,0,0,0-.15,6.91,17.14,17.14,0,0,0,.32,2.15,37.47,37.47,0,0,1,1.73,10.82c0,.32,0,.64,0,1s0,.48,0,.72,0,.52-.06.78-.05.57-.08.85a24.42,24.42,0,0,1-.51,2.89c-.05.21-.1.42-.16.62a22.07,22.07,0,0,1-1,3.07q-.33.78-.69,1.5a21.29,21.29,0,0,1-1.13,2l-.15.23a16,16,0,0,1-.94,1.32l-.07.09c-.13.16-.25.32-.38.47s-.3.37-.46.55l-.56.63-.53.54-.45.43-.23.22h0l-.25.23-.2.18-.17.15a.68.68,0,0,0-.12.12.38.38,0,0,0-.09.09.21.21,0,0,0,0,.06c-.05.13-.39.78-.91,1.75l-.24.44c-.13.24-.27.49-.41.76s-.3.54-.46.83c-.82,1.46-1.8,3.17-2.82,4.82-.19.3-.37.6-.56.89-.32.5-.64,1-1,1.47l-.3.43c-.47.7-.95,1.34-1.39,1.89q-.13.18-.27.33a7.21,7.21,0,0,1-1.43,1.39c-1.08.7-2.83,2.09-4.61,3.54.51-2.29,1.72-6.47,2.21-9.16.59-3.29,1.4-1.38,2.74-3.17s2-5.88,1.83-7.38-2-6.66-2.59-10.5a18.14,18.14,0,0,1,.76-7.66,59.58,59.58,0,0,1,3.49,5.5,18.76,18.76,0,0,0,5.5,5.73l2.92-5.73s.08-4.17,0-6.33c-.1-2.63-1.65-4.45-4.75-8.67-1.83-2.48-4.24-5.64-7.23-9.23,5.07,3.67,10.39,4.79,12.88,2.72,1.46-1.22,2.16-3.71,2.77-5.91a14.37,14.37,0,0,0,.66-4.67c-.06-1.42-.16-3.82-1.66-5.66-2.23-2.72-6.15-2.52-6.09-3.34,0-.32,1.07-.6,3.16-1.15,4.27-1.13,4.63-1.22,5-1.6a2.34,2.34,0,0,0,.57-.89c.65-1.7-.23-4.18-.41-5.4h0c-.06-.37-.05-.62.09-.7.35-.2,1.43.75,3.76,3.72,0,.2.08.39.12.57S231.26,111.92,231.3,112.08Z"/><path class="cls-33" d="M196.48,170.2a.49.49,0,0,1-.44.5,22.8,22.8,0,0,1-2.13-1h-1.43c-.32,0-1.13-.69-1.32-.82l0,0c-.11-.09-.31-.27-.52-.47s-.5-.51-.55-.56c-.59-.62-1.6-.73-3-1.37a8,8,0,0,1-1.18-.63c-1.1-.72-2.36-2-2.07-2.62.08-.16.35-.47,1.69-.38a5.84,5.84,0,0,0,1.83,1.75,7.41,7.41,0,0,0,1.95.88,3.86,3.86,0,0,1,1.35.56,6.85,6.85,0,0,0,1.12.59,6.14,6.14,0,0,0,.88.37c.38.09.38,0,1.19,0s1.37.48,2.12,1.29A2.32,2.32,0,0,1,196.48,170.2Z"/><path class="cls-34" d="M192.1,168.82a.81.81,0,0,1-.88-.5,6.55,6.55,0,0,0-1.25-.94c-.86-.49-1.19-.42-2.28-.93a9.7,9.7,0,0,1-1.91-1.19,4.12,4.12,0,0,1-1.18-1.6.23.23,0,0,1,0-.2c.12-.18.68,0,1.06.15a6,6,0,0,0,.76.84,5.87,5.87,0,0,0,1.12.81,11.22,11.22,0,0,0,1.88.69,10.51,10.51,0,0,1,1.31.43,7.39,7.39,0,0,1,1.05.58,1.28,1.28,0,0,1,.71.86C192.53,168.14,192.47,168.7,192.1,168.82Z"/><path class="cls-17" d="M211.49,161.51s1.73,1.38,1.73,2.06-.29,4.06-.29,4.06Z"/><path class="cls-9" d="M220.72,170.92h0a6.54,6.54,0,0,0-.87.83c-.06.15-.49,1-1.15,2.19l-1.16-3.25a6.19,6.19,0,0,0,.88-3.06c-.18-1.26,1.68-1.26,1.68,0A18.1,18.1,0,0,0,220.72,170.92Z"/><path class="cls-35" d="M204.74,112.81s-.7,3.2,0,5.16,0,5.51.75,7.77,1.22,7.27,0,5.6a24.58,24.58,0,0,1-3.05-7.1c-.34-1.65-1.59-3.44-1.76-4.71S201.13,112,204.74,112.81Z"/><path class="cls-36" d="M203.35,115.26c.4.11.47,1.1.6,3.08.09,1.4.3,4.56-.27,4.67-.26,0-.57-.55-1.16-1.71a6.63,6.63,0,0,1-1.1-2.94C201.43,116.72,202.74,115.1,203.35,115.26Z"/><path class="cls-35" d="M203.15,136.09a16.44,16.44,0,0,1,1.53,2.54,1.25,1.25,0,0,1-.77,1.38c-.31,0-2.15-.69-2.48-.72s-1.42-.2-1.42-.2A17.41,17.41,0,0,0,203.15,136.09Z"/><path class="cls-36" d="M202.9,136.7a10.61,10.61,0,0,1,1.06,1.75.87.87,0,0,1-.53,1c-.22,0-1.48-.48-1.71-.5s-1-.14-1-.14A11.94,11.94,0,0,0,202.9,136.7Z"/><path class="cls-35" d="M208.85,138.05a14.43,14.43,0,0,1,0,2.63c-.17.08-1.41,1-1.46,0S208.85,138.05,208.85,138.05Z"/><path class="cls-10" d="M204,131.81a5.86,5.86,0,0,1-4,1c-1.63-.11-2.71-.63-4,0a3.41,3.41,0,0,0-1.31,1.3,4.85,4.85,0,0,0-.49,3.29c.14.92.48,1.64.37,1.69s-.33-.36-.43-.53c-1.31-2.13-1-3.7-2.11-4.54a2.59,2.59,0,0,0-2.16-.35.82.82,0,0,0-.34.19,1.54,1.54,0,0,1-.45.25l.1-.25v0c1.38-3.51,6.19-18.72,10.42-23.4a37.43,37.43,0,0,1,.34,4.4s1.61,9.43,2.34,11.68S204,131.81,204,131.81Z"/><path class="cls-35" d="M181.78,117.13c0-.2-5.66.19-11.75-2.18a27.4,27.4,0,0,1-6.56-3.69c-.18.48-.39.64-.56.69-.52.16-1.22-.48-2.31-.69-.08,0-.19,0-.22,0s.91,1.12,1.28,1.45a25.07,25.07,0,0,0,9.5,5,23.42,23.42,0,0,0,9.31.37,7,7,0,0,1-3.75-.25,6.6,6.6,0,0,1-1.19-.56C180.65,117.32,181.78,117.23,181.78,117.13Z"/><path class="cls-35" d="M180.72,107.49c-2.47-1.94-5.16-2.09-7.81-2.23-4.82-.26-9.1,1.07-9.06,1.42a7.56,7.56,0,0,0,2.43.2c2.88.1,3.15,0,4.63,0a28.44,28.44,0,0,1,6.44,1.52,19.55,19.55,0,0,0,2.25,1.11l4.16,2A10.31,10.31,0,0,0,180.72,107.49Z"/><path class="cls-35" d="M176.53,116.51s-7.5-1.71-9.56-3.7,2.39.61,2.39.61Z"/><path class="cls-36" d="M173.2,117.22l-4.77-1.75a19.72,19.72,0,0,1-3-1.84,33.32,33.32,0,0,1,4,1.55A32.27,32.27,0,0,1,173.2,117.22Z"/><path class="cls-36" d="M180.4,109.28a18.75,18.75,0,0,0-4.47-2.19,18.13,18.13,0,0,0-5.17-.91,10.55,10.55,0,0,1,5.25.33A10.71,10.71,0,0,1,180.4,109.28Z"/><path class="cls-37" d="M218.91,133.32s-8.15-2.67-9.56-4.45-1.57-3.26,1.09-1.78,5.31,2.63,5.31,2.63,6.6.94,7.47.85S223.28,133.51,218.91,133.32Z"/><path class="cls-20" d="M221.39,117.89s.93.86,1,1.24-2.49,0-2.49,0a13.93,13.93,0,0,0,1,1.75c.35.42-.69.76-1,1.74a1.14,1.14,0,0,0-.1.7c.2.8,1.62,1,1.73,1l1.87,1.37c.45,1,1.68,3.38,2.5,3.19.61-.15.74-1.7.81-2.44a8.29,8.29,0,0,0-.88-4.82A8.2,8.2,0,0,0,221.39,117.89Z"/><path class="cls-20" d="M175.41,120.45A20.8,20.8,0,0,1,162.6,117c-6.43-4.25,0-2,0-2l-2.23-1.28s.22-.66,4.17,1.28a76.07,76.07,0,0,0,10.87,3.79l4.38.43Z"/><path class="cls-20" d="M167.46,104.48s-7.16,2.39-8.57,2.58-4.79.58-4.79.58,4.87-2.32,3.12-3.16a1.4,1.4,0,0,1,.5-2.72C159,101.88,164.45,104.57,167.46,104.48Z"/><path class="cls-20" d="M219.84,137.44s-4.24-1.84-5.62-3.51a69.32,69.32,0,0,0-6.29-5.63s.33,3.59,2.44,5.4,9.47,4.86,9.47,4.86Z"/><path class="cls-35" d="M219.73,120.6a8.66,8.66,0,0,0-3.45-1.09,35.79,35.79,0,0,0-4.06.62s.19-.75,2.31-1,3.5-.25,4.19.32A4.32,4.32,0,0,1,219.73,120.6Z"/><path class="cls-35" d="M219.22,121s-2.3-1.78-6-.35c-.07,0-.88.37-.84.52s1.45-.44,3.22-.11c1.35.25,2.29.95,2.93.5.15-.11.69-.56.69-.56Z"/><path class="cls-17" d="M107.39,134.34l-1.13.34,1.13,1.33.73,1.67s-1.19.66-1.44.58-.42.5-.42.5,1.48.58,1.86,0a1.82,1.82,0,0,1,1.45-.67,7.12,7.12,0,0,0,1.51-.91,3.11,3.11,0,0,0-1.51-1.5C108.6,135.34,107.43,134.84,107.39,134.34Z"/><path class="cls-20" d="M212.84,147.75h0c-.29,2.11-1.32,4-4.07,3.83,0,0-3.82,0-2.84-.64s3.87-2.07,3.43-2.13-.57-.75-2.2.06-6.18,2.94-9.56.63c0,0-1-1.21-.94-1.76s.88-.68,1.56-.37,1.63.76,1.07-.37-2.38-2.5-5.44-2.81a7.72,7.72,0,0,0-5.31,1.56s-3.5-.5-4.38-2.75a6.33,6.33,0,0,1-.58-3.72c.58-.48,1.88-1.72,3.18-3a4.57,4.57,0,0,1-.33,1.74c-1,2.4-.66,3.54,0,4.21s4.17.67,6.59,0,3.25-1.54,5.75-1.16a6.71,6.71,0,0,1,4,2.33c.31,2,4.18,2.62,5.18,2.48s1.84-1.36,2.51-1.72a10.51,10.51,0,0,1,2.29-.47A14,14,0,0,1,212.84,147.75Z"/><path class="cls-38" d="M178.35,234.76l-.11.15A29.45,29.45,0,0,1,165.76,245a25.88,25.88,0,0,1-10.14,2c-.38,0-.75,0-1.13,0-.35-.4-.73-.82-1.15-1.25a26,26,0,0,0-2.19-2.08c.5.08,1,.15,1.5.2a23.76,23.76,0,0,0,11.95-1.62,26.89,26.89,0,0,0,12.25-10.76c.24-.38.47-.77.69-1.16a7.69,7.69,0,0,0,.09,2.79,5,5,0,0,0,.52,1.32Z"/><g class="cls-39"><path class="cls-40" d="M178.11,234.37c-.15-.41-.31-.82-.44-1.23,0,0,0,0,0,0l0,0a26.85,26.85,0,0,1-12.41,11,23.7,23.7,0,0,1-11.88,1.62c.42.43.8.85,1.15,1.25.38,0,.75,0,1.13,0a25.88,25.88,0,0,0,10.14-2,29.45,29.45,0,0,0,12.35-9.94Z"/></g><path class="cls-26" d="M177.42,232.64a29.64,29.64,0,0,1-12.59,10.26,26.05,26.05,0,0,1-10.14,2c-.38,0-.75,0-1.13,0-.28-.32-.58-.66-.91-1a23.76,23.76,0,0,0,11.95-1.62,26.89,26.89,0,0,0,12.25-10.76A4.51,4.51,0,0,0,177.42,232.64Z"/><path class="cls-41" d="M200.6,49.58l-.34.28c-6.1-1.39-17.09-1-35.16,8.4,0,0-4,5.62-5.75,6.12s-4,1-4.5,1.63-3.75.37-4.37.75L140,73l-.21.32a22.77,22.77,0,0,1,1.33-9.49c-1-2.43-6.25.92-9.5,1.42S123.1,71,123.1,71l-5.31,9h-2.43l2.43-3a15.68,15.68,0,0,0,3.06-6.25l4-3.25,7.75-11c3.3-6.14,9-9.14,13-10.56l.51-.16,1.17-.36.27-.08.27-.08.08,0a19.32,19.32,0,0,1,2.35-.49s-.67-4-2.34-2.75-9.58,1.5-9.58,1.5c-2.75,4.67-9.45,3.07-9.45,3.07,2.21-1.58,4.64-3.41,5.12-4.15l5.16-2.62,1.92-1,10.25-3.41,1.73-.18,9.52-1s1.79-.08,4.08-.12h0l11.55,5.37C193.13,43.51,200.6,49.58,200.6,49.58Z"/><path class="cls-42" d="M147.93,45.24h0c-.5.61-16.43,20-23.07,22.26S115.47,79.58,115.36,80h0s.1-.85.22-2h0a47.68,47.68,0,0,0,.35-6,9.28,9.28,0,0,0-1.11-3.44,6.2,6.2,0,0,0-1.75-2l-.13-.1a4.29,4.29,0,0,1-1.24-1.72,8.68,8.68,0,0,1-.43-1l1-1.09S117.43,52.44,125,49.27c0,0,1.31-.88,2.93-2,1.39.7,2.24,1.44,1.9,2-.75,1.25-6,5.24-1.1,2.74,3.67-1.87,12.63-4.75,16.87-6.06l.51-.16,1.44-.44.27-.08Z"/><path class="cls-43" d="M116.48,75a16,16,0,0,1-.64,2.16,11.65,11.65,0,0,0-.49,1.71c-.06.33-.12.67-.19,1l-.31,1.77s-2,.62-3.13,0-1-1-2.15-2.63-.22-4.5,0-6.13c0-.19.06-.38.1-.55a8.8,8.8,0,0,1,.68-2.19c0-.19-.09-.37-.12-.55-1.14-5.58,2.49-5.52,2.63-3.71s3.24,3.38,3.62,4.26A13,13,0,0,1,116.48,75Z"/><path class="cls-44" d="M106.27,78.51v3.4a30.13,30.13,0,0,1-2.79,3c-1.63,1.5-2.13,3.13-2.88,4.63s-4.38,7.75-4.3,8.63S95,103.64,95,106s-.5,3.15-1.26,4l-.11.13c.32-3,.55-5.17.61-5.76a12.13,12.13,0,0,0-.87-4.08,39.8,39.8,0,0,1,2-3.53l1-4.51s3.8-6.62,4.18-8.86S106.27,78.51,106.27,78.51Z"/><path class="cls-45" d="M106.26,120.6a4.3,4.3,0,0,1-1,3,6,6,0,0,0-2.12,3.36c-.17,1.16-3.08.83-2.62,0s2.64-4.62,2.3-5.48S106.26,120.6,106.26,120.6Z"/><path class="cls-46" d="M115.91,104.38s-4,4.55-4.83,6.13.64,3.91,0,4.33a7.67,7.67,0,0,0-1.51,2.17v3.59a41,41,0,0,1-1.69-4.09c-.28-1.08,1.12-2.88,1.12-2.88S111.36,105.18,115.91,104.38Z"/><path class="cls-47" d="M119.43,84.93l-4.08,3.85s.41,3-1.75,4c0,0-4,4.87-5.76,5.37,0,0-4.12,4.63-4.49,6.57,0,0-3.13,6.27-5.13,7.79l-.87,2.42s-.5-1.18,1-3.67,2.62-3,2.62-3.75,2.38-5.24,2.38-5.74,2.45-2.74,2.91-3.37,5.62-4.79,5.62-4.79,1.72-3,1.84-3.33,1.63-2.65,1.63-2.65l1.36-4.21Z"/><path class="cls-44" d="M105.47,93.59a9.75,9.75,0,0,1-2.12,2,5.82,5.82,0,0,1-2.38,0s1.63-.56,3.75-3.31S105.47,93.59,105.47,93.59Z"/><path class="cls-48" d="M90.6,122.14l1.5,2.1s0,.54-.12,1.34l0,.31c-.36,3.35-.69,6.45-.93,8.74-1.32-3.59-2.55-8-2.17-11,0,0-.92-8.41-.08-12.91s1.41-9.5,3.66-10.75c0,0,.13-.42.37-1.14.19.5.38,1,.55,1.51-1,2-1.94,4.4-1.5,5.69a5.85,5.85,0,0,0-1.25,4.52s-1.61,4.88-.06,6.5Z"/><path class="cls-48" d="M93.61,110.14c-.11,1.1-.24,2.31-.37,3.59,0,0,0-.06,0-.09C92.87,111.74,93,111,93.61,110.14Z"/><path class="cls-32" d="M115.84,77.17a11.65,11.65,0,0,0-.49,1.71c-.06.33-.12.67-.19,1l-2.3,1.27s-.32-.26-1.6-3.63a51.87,51.87,0,0,1-1.59-5.18,8.8,8.8,0,0,1,.68-2.19c0-.19-.09-.37-.12-.55a11.25,11.25,0,0,1,1,.79s2.45,2.88,3,3.76C114.59,74.61,115.27,76,115.84,77.17Z"/><path class="cls-49" d="M181.78,48.43l-2-4.5s-5.17-1.34-5.76-1.34-3.27.34-4.18,1.34-3.67,3-4.38,3.66-2.87,2-2.87,2.94-.67,2.56,0,3.06a17,17,0,0,1,1.94,2.17l2.92-2,2.39-.33,2.62-1.5s4.24-2.83,5.76-2.66A8.07,8.07,0,0,0,181.78,48.43Z"/><path class="cls-50" d="M154.1,37.43a6.37,6.37,0,0,1-1.33,1.5l-13.59.88,1.92-1,10.25-3.41,1.73-.18A7.32,7.32,0,0,1,154.1,37.43Z"/><path class="cls-51" d="M199.11,44c-2.6,1-6,2.1-7,1.23-1.75-1.48-19.33-7.15-22.33-9.56-.53-.43-1.15-1-1.81-1.56,3.3,0,7.08,0,8,.47,1.67.84,10.92,3.42,10.92,3.42S195.39,42.17,199.11,44Z"/><path class="cls-52" d="M139.47,71.63a86.27,86.27,0,0,0-8.38,11.25c-4.45,7.13-7.47,14.31-8.24,14-.53-.2.32-3.67,0-3.75s-1.13,6.1-5.43,8.57a7.09,7.09,0,0,1-1.58.68,16.78,16.78,0,0,1,.08-5c.48-2.21,1.34-3.54,2.43-8s3.75-5,4.87-6.25,1.25-2.12,2-3.75,2.13-5.11,3.38-6c2.77-2.09,4.31-1.12,7-3.74,2-2,2.32-4.08,3-4C139.05,65.72,139.53,66.78,139.47,71.63Z"/><path class="cls-53" d="M136.22,70.88a19,19,0,0,0-5.12,3.38c-1.75,1.87-2.13,2.37-2.13,3.5a5.44,5.44,0,0,1-.62,2.25s2.11.81,1.24,1.9-3.49,5.43-3.62,5.7a3.51,3.51,0,0,0,1.75,2.27c.88.26,7.61-9.87,7.61-9.87H133.1l3.12-2.38V75.1h-3v2.16l-2.13.12S133.72,71.51,136.22,70.88Z"/><path class="cls-44" d="M118.35,90.76v2.83c0,1.33-1.87,2.79-2.43,3.79a12,12,0,0,1-4.07,4.37c-2.13,1.25-5.75,6.89-5.58,7.76s.71,4.5,0,4.78a2.68,2.68,0,0,1-1.55,0s-1.37,3.22-3.23,4.41-4,5.31-4,5.77a27.65,27.65,0,0,0,.59,4.29c.34,1.38.91,2.75,0,3.56s-.72,4.32-.72,5.56.75,2,.72,5a6.5,6.5,0,0,0,2.53,4.87l-3.33.18s.08-1.17.08-2.17a34.11,34.11,0,0,0-.25-3.62A9.16,9.16,0,0,0,95.48,139a41.69,41.69,0,0,1-2.13-3.76,35.29,35.29,0,0,1-1.87-3.75c0-.25.29-3.55.47-5.62l0-.31c.07-.8.12-1.34.12-1.34l-1.5-2.1L90.54,117c-1.55-1.62.06-6.5.06-6.5A5.85,5.85,0,0,1,91.85,106c-.44-1.29.48-3.67,1.5-5.69a12.13,12.13,0,0,1,.87,4.08c-.06.59-.29,2.77-.61,5.76-.64.82-.74,1.6-.39,3.5,0,0,0,.06,0,.09.37,1.89.62,1.17,1.48,2.78s.38,1.87-.24,4a23.66,23.66,0,0,0-.63,6.5,14.08,14.08,0,0,0,.75,3.87,4.46,4.46,0,0,0,1.7,2.26s-.08-6.13,0-7,.8-3.88.8-3.88,2.75-6.12,5.25-8.74,3.25-5.88,2.87-6.88,4.26-5.38,4.88-4.89,5.82-5.49,5.82-5.49Z"/><path class="cls-52" d="M73.26,165.93s-8.66-4.84-13.33-2.5a4.19,4.19,0,0,0-3.83,2.5s14.83,3,16,2.16A2.85,2.85,0,0,0,73.26,165.93Z"/><path class="cls-47" d="M93.35,169.76s2.91-5.44-6.59-7.72L75.6,165.9l-2.34,0-1.16,2.16-16-2.16s-3.5.16-5.67,5.66c0,0-3.33,6.92-5.17,6.38s-4.83,8.32-3.83,10.14c0,0,1.17-2.18,5.33-3.68,0,0,7-4,8-4.67s-2.83,3-3.5,3.83.34,2,.84,2,.83-1.66,2.33-3.16A55,55,0,0,1,60.6,178s.33-2.88,4.08-4,7.42-.34,9.58-1.5,4.34-3.34,5.34-3.5,6.83-1.21,8-.69A55.77,55.77,0,0,0,93.35,169.76Z"/><path class="cls-42" d="M50.26,185.43s-8.5.8-10.66,5.4c0,0-8.67,7.64-7,12.12l2.16,3.14s3.5,1.17,3.84-5c0,0,6.16-4.83,6.33-6.83C44.93,194.26,49.84,188.68,50.26,185.43Z"/><path class="cls-47" d="M22.74,240.36c.74-.62,1.41-1.28,1.45-1.67.09-.9.07-2.43.07-2.43s-.16-5.83,0-7,2.17-3.83,2.17-5.5,1.67-6.5,1.67-6.5l3-6.17,1.28-7.33c-2.38-2.33-4,7.83-4.45,9.33s-2.83,6.67-3.5,9-1.5,11.5-1.5,11.67-.82,3-1.48,5.32C21.9,239.5,22.33,239.92,22.74,240.36Z"/><path class="cls-47" d="M38,232.35a16.56,16.56,0,0,0-4.66,1.54,4.27,4.27,0,0,1-.1-.88c0-.33-.67-2,0-2a12.74,12.74,0,0,1,4.08,1A3.08,3.08,0,0,0,38,232.35Z"/><path class="cls-47" d="M47.32,227.43a38.86,38.86,0,0,0-4.61,2.65,14.86,14.86,0,0,0-2.44,2,12.7,12.7,0,0,0-1.39.13,11.41,11.41,0,0,0-.53-2.38c-.25-.33-2.92-2-3.25-3a1.76,1.76,0,0,1,1.08-2.33c1-.33,1.92-.42,2.34-1.17a6.08,6.08,0,0,0,.58-2.5c0-.58-.17.09-1.25.17s-1.58.08-1.92-.58-.58.5-.33-1.17-.33.19.33-2.15,1.5-2.93,1.84-3.1.75.58,1.16,1.42a14.44,14.44,0,0,1,.67,3.08,10.73,10.73,0,0,0,.58,1.08c0,.11,0,0-.12,0l.21.24a1.67,1.67,0,0,1,.41,1.67c-.08.58-.41,3.83.09,4.5s.91,1.42,1.25,1.5.5-1,.08-2.58a18,18,0,0,1-.42-4.09,8.18,8.18,0,0,1,.09-2.83,6.82,6.82,0,0,0,.41-2.17c0-.5-1.67-2.41-2-2.83s.12-1.25,1.15-1.5a6.61,6.61,0,0,0,2.35-1.17c.59-.41.84-2.41-.08-2.41s-3.09-.34-3.42.41-.66.92-.66,1.84a5.44,5.44,0,0,1-.75,2.16,3.8,3.8,0,0,1-.5-2.16,18.87,18.87,0,0,1,1.25-4s1.33-1.92,2.5-3.59c.81-1.16,1.53-2.21,1.66-2.41.34-.5,1.53-1.77,2.59-1.75,0,0-.17,13.66,0,17S46.21,225.27,47.32,227.43Z"/><path class="cls-44" d="M34.43,207.51a37.27,37.27,0,0,0-4,6.7,5.74,5.74,0,0,0-.36,2.06c0,.32.1.45.1.84v2.32c0,1.75.08,5.25,0,6.41a3.1,3.1,0,0,1-.91,1.92,1.07,1.07,0,0,1-1.67,0c-.92-.92-.17-1.75-.92-.92a3.81,3.81,0,0,0-.83,2.59c0,.66-.59-1.59,0,.66s.66,4,1.08,4.75.42,2.31,1.25.95,1.82-.95,1.83-2,.84-5.25.84-5.75a14.74,14.74,0,0,1,.66-3.33,28.74,28.74,0,0,1,1.46-3.5,17.27,17.27,0,0,1,1.46-2,13.34,13.34,0,0,1-2.75-.92c-.33-.33-.5-1.17.33-2A15,15,0,0,0,34.43,214C35,213.09,34.93,208.93,34.43,207.51Z"/><path class="cls-47" d="M17.89,236.13c0-1.65-.08-3.92-.08-3.92v0a16,16,0,0,0-1.19,3C17,235.51,17.47,235.82,17.89,236.13Z"/><path class="cls-41" d="M92.85,172.26s-5.38.12-5.75,0-2.38,2.62-4.88,3.37-6.42,3.5-9,4.38-2.91,1.5-2.91,1.5v1.37s-1-1.25-1.5-2-2.63-.5-3.38-.37a5.37,5.37,0,0,1-2,.25,6.16,6.16,0,0,1-2.12-1.13s-1.58.2-.75-1.66.26-3,7.6-4.68,8.11-2.49,9.75-3.43,1.65.86,4.27,0,3.75-.28,3.75-.28S87.6,171.88,92.85,172.26Z"/><path class="cls-45" d="M99.35,165.51s1.62,1,0,2.73-1.88,1.27-2.25,2.64.12,1.88-1.38,1.88a9.46,9.46,0,0,1-2.87-.5,24,24,0,0,1,2.5-3.12C95.72,169,99.35,165.51,99.35,165.51Z"/><path class="cls-47" d="M106.6,174.51s-4.2,1.38-4.08,2.3-3,4.95-3.3,5.45a19.41,19.41,0,0,1-3.87,3.17,23,23,0,0,0-4.63,3.45,12.7,12.7,0,0,0-2.12,4.5s.25,1.5.62,1.38,2.63-3.36,3.13-3.93,1.5-2.38,2.5-2.72.59.15,1.61-1a27,27,0,0,1,3.61-2.87,10.65,10.65,0,0,1,.9,2,17,17,0,0,1,.52,3.25s1.14-1.74,0,1.32-1.45,2.44-1.42,3.94,0,1.74,0,2.24,0,2.25,0,2.25a22.29,22.29,0,0,1,1.42-3.46c.73-1.29-.14.33,1-2.54s1.77-2.25,1.63-3.38a7,7,0,0,1,.9-3l-.36-1.45s-2.54-1.3-2.54-1.8-.63-1.5.25-2.75-.88,1.25.87-1.25,3.38-4,3.38-4.56Z"/><path class="cls-47" d="M100.6,174.51s-3.78,0-4.14.56-10,9.52-10.86,9.94a5.93,5.93,0,0,1-3.42,0c-.58-.25-1-.67-1.58-.17a9.52,9.52,0,0,0-1.5,2c-.17.3-.09.21-1.5.71s.5-.91-1.42.5A14.35,14.35,0,0,1,72.85,190s.25,1.14,1.08.82,4-.49,5.25-1.07A33.43,33.43,0,0,0,82.35,188c.25-.17,1.5-1.06,1.08.1a17.33,17.33,0,0,1-1.5,2.78s-1.42,3-1.67,3.2a2.65,2.65,0,0,1-1.75.84c-1.25.25-12.83.87-12.83.87l-9.58-3.62-4.5-4.07s-.5-2,0-2.27,7.58-.41,7.58-.41,1.67,1.25,2.08,1.45a2.54,2.54,0,0,0,1.59,0c.41-.12.66.13.91-.62s-.83-.46.92-1.1.67-.23,1.75-.65a5.29,5.29,0,0,0,2.17-1.25,3.86,3.86,0,0,1,.75-.83,10.35,10.35,0,0,1,1.83-.34,7.16,7.16,0,0,0,2.67-.25c.58-.33,10.33-5.07,12.75-5.7A16.69,16.69,0,0,0,91.18,174S98.46,173.36,100.6,174.51Z"/><path class="cls-19" d="M111.2,148.21v-.08l.14-.77-1.75-.54a14.29,14.29,0,0,1-5.44-6c-2-4.34-.77-8.46-1.12-8.5s-2.75,5.68-.76,10.75c1,2.51,1.78,4.51,3.38,5.94a4.91,4.91,0,0,1,1.5,2.06,4.67,4.67,0,0,1,.12,2.56c-.29,0-2.81-.45-3.81.94a3.72,3.72,0,0,0-.44,2.19,12,12,0,0,0,.42,3.43,15.75,15.75,0,0,1-.39,3.52A16.73,16.73,0,0,1,102,167a68.33,68.33,0,0,0,.87,11.57c.38.84,2.4,9.17,2.4,9.17l1.55-4v6.67l1.39-7.34v8.67h0a72.24,72.24,0,0,1,2.55-12.12c.45-1.47.68-2,1-3.27a33.64,33.64,0,0,0,1.09-11.62v0a54.34,54.34,0,0,1-1.42-7.89A53.44,53.44,0,0,1,111.2,148.21Z"/><path class="cls-6" d="M199.41,182.88s-5.51-4.47-8.81-5.95-9.34-.57-9.34-.57l-2.91-2.53a18.43,18.43,0,0,1,7.21-2c3.69-.08,9.37,1.81,10.7,2S198.72,179.69,199.41,182.88Z"/><path class="cls-24" d="M226.63,127a6.66,6.66,0,0,1-3.15-.4,9.52,9.52,0,0,1-1.42-.73,10.92,10.92,0,0,1-1.27-1,10.51,10.51,0,0,0,1.28.94,8.65,8.65,0,0,0,1.43.71A6.7,6.7,0,0,0,226.63,127Z"/><path class="cls-24" d="M224.77,126.38a9,9,0,0,1-5.38-2.76A9.87,9.87,0,0,0,224.77,126.38Z"/><path class="cls-24" d="M227.41,127.33a6.63,6.63,0,0,1-3.15-.38,7.75,7.75,0,0,1-1.44-.72,10.6,10.6,0,0,1-1.28-1,9.92,9.92,0,0,0,1.3.93,8.6,8.6,0,0,0,1.43.7A6.74,6.74,0,0,0,227.41,127.33Z"/><path class="cls-24" d="M227.47,127.66a6.78,6.78,0,0,1-3.15-.39,8,8,0,0,1-1.43-.73,9.84,9.84,0,0,1-1.27-1,9.89,9.89,0,0,0,1.29.94,7.89,7.89,0,0,0,1.43.7A6.57,6.57,0,0,0,227.47,127.66Z"/><path class="cls-24" d="M227.67,128.06a6.63,6.63,0,0,1-3.14-.42,7.58,7.58,0,0,1-1.41-.74,9.82,9.82,0,0,1-1.26-1,9.77,9.77,0,0,0,1.27.95,8.61,8.61,0,0,0,1.42.72A6.66,6.66,0,0,0,227.67,128.06Z"/><path class="cls-24" d="M226.32,128.41a5.75,5.75,0,0,1-2.77-1.11,6,6,0,0,1-1.09-1,7.59,7.59,0,0,1-.84-1.25,7.61,7.61,0,0,0,.86,1.24,6.25,6.25,0,0,0,1.1,1A5.76,5.76,0,0,0,226.32,128.41Z"/><path class="cls-24" d="M225.57,130.34a7.17,7.17,0,0,0-3.7-.3A6.25,6.25,0,0,1,225.57,130.34Z"/><path class="cls-24" d="M226.24,130.28a7.21,7.21,0,0,0-4.31-.18A6.38,6.38,0,0,1,226.24,130.28Z"/><path class="cls-24" d="M226.35,130.08a7.17,7.17,0,0,0-4.3-.17A6.36,6.36,0,0,1,226.35,130.08Z"/><path class="cls-24" d="M226.59,129.86a6.13,6.13,0,0,0-2.47-.39,7.17,7.17,0,0,0-2.46.48,7.37,7.37,0,0,1,2.46-.53A6.32,6.32,0,0,1,226.59,129.86Z"/><path class="cls-24" d="M225.61,129.33a5.69,5.69,0,0,0-3.35.51A5,5,0,0,1,225.61,129.33Z"/><path class="cls-26" d="M169.41,267.07c2.36,2.45,2.78,2.07,4.81,4.19s1.47,2.29,3.82,4.88c2.14,2.36,2.67,2.28,3.75,4,1.23,1.95.89,2.62,2.12,4.06s1.89,1.15,3.75,2.62a14.51,14.51,0,0,1,2.84,3,15,15,0,0,1,1.29,2.17c1.11,2.22.46,2.3,1.69,5.31a21,21,0,0,0,3.13,5.62l7.58-3.44c-.75-2.68,0-3.29-1.28-5.36-1-1.71-1.94-2.05-2.62-4.07-.07-.2-.12-.38-.17-.55a19.47,19.47,0,0,0-.77-2.7,24.69,24.69,0,0,0-1.19-2.5c-1-2.18-.57-3.75-.75-5.5-.44-4.43-4.22-4.34-6-9.83-1.08-3.3.08-4-1.38-6.53-.91-1.61-1.39-1.4-4.18-5.1a33,33,0,0,0-2.48-3.1,25.45,25.45,0,0,0-2.69-2.5,2.11,2.11,0,0,1,.06-.94c.25-.73.86-.93,1.19-1.37.82-1.07,0-3.54-.75-3.63s-.94,2.78-3.44,6a16.05,16.05,0,0,1-4.62,4.06l-.61.33-7.27,3.93,0,0a11.06,11.06,0,0,0,1,2.46A16.16,16.16,0,0,0,169.41,267.07Z"/><path class="cls-19" d="M131.9,291.8l-14.73.5a31.76,31.76,0,0,0-6.09-3.37S97.6,279.76,96.3,276.76s-6.43-7.25-6.43-7.25A59,59,0,0,1,91.1,258a19.93,19.93,0,0,1,4-8.5h6.39l-5.19-1.74-14.45-5.36c-2.75-3.6-10-4.21-10-4.21-4.5-3.3-11.49-3.18-11.49-3.18l4.32-2.57s10.42,7,18.75,4.67,24.42,0,24.42,0-7.75,18.14-9.25,23,.5,2.62,0,9.62,2.5,2.5,6.62,7.5,1.38,1.5,5.86,5.5,6,2.5,11,5A72.65,72.65,0,0,0,131.9,291.8Z"/><path class="cls-54" d="M26.94,246.31a70.67,70.67,0,0,0,5.21,9.52c5.43.89,12.83,2.26,12.83,2.26s-2.21-5.66-3.65-10.32a20.13,20.13,0,0,0-1-2.7l7,2s.11-3.28,0-5.11-6-6.2-6-6.2a34.63,34.63,0,0,1,6,.6c2.55.56,13-1.31,13-1.31v-2.57S54.23,230.2,47,227.59c-1.13.57-4.9,2.53-6.72,4.5,0,0-5.84.17-9.34,3.5,0,0-4.83,2.67-7.33,1.84A10,10,0,0,1,22.44,240,22.33,22.33,0,0,1,26.94,246.31Z"/><path class="cls-55" d="M101.49,249.51s-16.2-4.57-19.64-7.1-4.45-3-5.86-3.4-6.57-2.41-8.49-2.91c-.66-.17-1.7-.35-2.79-.52-2.1-.31-4.35-.56-4.35-.56s7.49,3.35,8.24,3.67,4.25,1.37,4.25,1.37,3.25.95,5,1.7,9.34,5.73,11.75,5.28l5.5,2.47Z"/><path class="cls-19" d="M46.88,270.66a247.36,247.36,0,0,0,38.91,22.69l7.23-.24S61.1,262.63,56.1,259.94c-3.66-2-9.12,3.66-12.41,8C44.74,268.86,45.8,269.77,46.88,270.66Z"/><path class="cls-56" d="M38,244.91s3.3,2.86,6.94,2.13,9.13,1.72,11.13,2.47,7.5,8.75,8.58,10.63,7.92,8.12,11.31,8.62,4.11,0,4.93,3,12.18,9.5,12.1,16c-.07,5.36,0,5.53,2.39,10,4.79,1.88,9.64,3.52,14.54,5,2-1,3.61-2.13,4.33-2.46,1.06-.49,8.26,3.15,15.35,7,.72.12,1.44.26,2.17.37,2.5.29,5,.54,7.56.77L126,301.76s-14.88-12.83-19.7-11.5-10-13.5-15.38-15-11.28-14-14.28-15.72-16.24-10-16.24-10,10.24.25,16.24,0S92.85,253,92.85,253c-5.75-7.1-28.14-17.46-28.14-17.46l-23.38.15s4.2,3.59,3.64,4.33S38,244.91,38,244.91Z"/><ellipse class="cls-57" cx="172.95" cy="109.6" rx="0.76" ry="0.47"/><ellipse class="cls-58" cx="214.05" cy="123.71" rx="0.95" ry="0.59"/><ellipse class="cls-58" cx="214.05" cy="123.71" rx="0.6" ry="0.37"/><path class="cls-19" d="M233.88,212.61c-1.31,4-3.18,9-4.92,10.77,0,0-17-8.92-19.28-9.95-2.16-1-21.07.15-30.37,7.19a55,55,0,0,0,.79-6.19c0-2.67.33-9.5.67-10.17a15.68,15.68,0,0,1,2.51-2.42c1.88-.08,3.94-.27,6.2-.58,0,0,6.24-1.12,10-5.88,0,0,17.12,3.71,19,14.21A51.4,51.4,0,0,1,233.88,212.61Z"/><g class="cls-39"><path class="cls-55" d="M233,281.85a42.28,42.28,0,0,1,.25-10.6,79.76,79.76,0,0,1,2.25-10.39c1.89-6.82,4.24-13.48,5.65-20.3l.07.61a49.8,49.8,0,0,0-9.35-13.11A52,52,0,0,0,219,218.41a39.19,39.19,0,0,0-15.42-4.54,31.47,31.47,0,0,0-8.1.5,31.83,31.83,0,0,0-7.75,2.64,29.5,29.5,0,0,1,15.89-4.27,38.42,38.42,0,0,1,16.17,4.12,50.27,50.27,0,0,1,13.54,9.82A49.27,49.27,0,0,1,243,240.35l.14.3L243,241c-1.55,7-4.09,13.6-6.23,20.28A96.83,96.83,0,0,0,234,271.38,47.68,47.68,0,0,0,233,281.85Z"/></g><path class="cls-19" d="M270.17,241.35l0,.06a27.71,27.71,0,0,0,2.14,3.5s0,0,0,0a1.16,1.16,0,0,1,.16.21,6.74,6.74,0,0,1,.38.62c.49.9,1,2.17,1.64,3.63q2.59-3.25,5.15-6.54a16.34,16.34,0,0,1-4.42-6.09c-1.67-4.33-8.17-7.5-8.17-7.5,0,.46-1.4.24-3-.13.94,2,2,4.26,3.14,6.47S269.27,239.69,270.17,241.35Z"/><g class="cls-39"><path class="cls-55" d="M273,246.07c-1.5-2.38-2.83-4.81-4.18-7.23s-2.67-4.86-3.85-7.41a41.38,41.38,0,0,1,4.73,6.93A39.53,39.53,0,0,1,273,246.07Z"/></g><g class="cls-39"><path class="cls-55" d="M157.51,307c-3-1.81-6.08-3.52-9.22-5.11s-6.3-3.08-9.48-4.58l.07,0c-7.5-2.51-15.22-4.68-22.39-8.44a40.24,40.24,0,0,1-9.85-7.14,29.9,29.9,0,0,1-2-2.3c-.65-.79-1.19-1.67-1.79-2.5s-1-1.8-1.54-2.69-.72-2-1.08-2.92a29.31,29.31,0,0,1-1-12.16,48.54,48.54,0,0,1,3-11.68c2.89-7.49,6.92-14.36,10.51-21.44-3,7.36-6.67,14.46-9.2,21.92a49.7,49.7,0,0,0-2.63,11.38,28.44,28.44,0,0,0,1.1,11.4c.34.88.65,1.78,1,2.66s.92,1.66,1.43,2.47,1.07,1.58,1.69,2.32l.94,1.09a8.84,8.84,0,0,0,1,1.06,38.25,38.25,0,0,0,9.32,6.84A84.4,84.4,0,0,0,128.14,292c3.69,1.42,7.45,2.7,11.17,4.12l.05,0h0c3.11,1.64,6.23,3.29,9.26,5.08S154.67,304.94,157.51,307Z"/></g><g class="cls-39"><path class="cls-55" d="M199.76,197.43a20.76,20.76,0,0,1,5,1.24,26.06,26.06,0,0,1,4.6,2.24,16.65,16.65,0,0,1,4,3.33,8.81,8.81,0,0,1,1.44,2.25,4.62,4.62,0,0,1,.36,2.6,8.46,8.46,0,0,0-2.9-3.75,40.09,40.09,0,0,0-3.95-2.74c-1.38-.85-2.78-1.68-4.21-2.52S201.18,198.39,199.76,197.43Z"/></g><g class="cls-39"><path class="cls-55" d="M219.43,212.09a33,33,0,0,1,11.2.54,27.33,27.33,0,0,1,5.41,1.88,19.54,19.54,0,0,1,4.77,3.32,48.9,48.9,0,0,0,8.54,6.77,68.15,68.15,0,0,0,9.68,5.08l-.19,0a26.12,26.12,0,0,1,7.5,2.34,18.26,18.26,0,0,1,3.28,2.13,11.39,11.39,0,0,1,2.48,3,12.87,12.87,0,0,0-2.81-2.52,17.83,17.83,0,0,0-3.36-1.67,24.74,24.74,0,0,0-3.59-1.08,29.11,29.11,0,0,0-3.66-.61h-.09l-.1,0a53.65,53.65,0,0,1-10.18-4.91,43.14,43.14,0,0,1-8.83-7.1,18.35,18.35,0,0,0-4.21-3.18,28.49,28.49,0,0,0-5-2.1A43.73,43.73,0,0,0,219.43,212.09Z"/></g></g></g></g></svg>